<svg xmlns="http://www.w3.org/2000/svg" viewBox="0 0 827.72 252.17">
  <g id="Layer_2" data-name="Layer 2">
    <g id="Layer_1-2" data-name="Layer 1">
      <g>
        <g>
          <path d="M74,149.75,46.35,97h-.2v52.8H0V2.58H68.6q17.87,0,30.55,6.34t19,17.25a48.13,48.13,0,0,1,6.34,24.64A43.78,43.78,0,0,1,116.3,77q-8.2,11.43-23.59,16.42l32,56.33ZM46.15,66.19H64.44q6.65,0,10-3c2.21-2,3.32-5.16,3.32-9.45q0-5.82-3.43-9.15c-2.28-2.21-5.58-3.33-9.87-3.33H46.15Z" style="fill: #7566f0"/>
          <path d="M185.42,39.37V57.46h45.73V92.17H185.42V113h52v36.79H139.27V2.58h98.11V39.37Z" style="fill: #7566f0"/>
          <path d="M249.48,64.09A63.86,63.86,0,0,1,262.74,30q11.58-15,32.14-23.47Q312.57-.8,329.23.1a63.17,63.17,0,0,1,30.4,9.39A73.69,73.69,0,0,1,382.9,33l-45,18.52a26.32,26.32,0,0,0-13.06-6.87,24.85,24.85,0,0,0-14.52,1.6q-10.75,4.42-13.68,15.08t2.7,24.29q5.63,13.65,15.19,19.14t20.34,1.07a24.92,24.92,0,0,0,11.43-9.09,26.41,26.41,0,0,0,4.43-14.08l45-18.53a73.43,73.43,0,0,1,0,33.05,63.15,63.15,0,0,1-15,28.08q-11.2,12.38-28.88,19.65-20.58,8.48-39.35,6A63.81,63.81,0,0,1,279.09,136q-14.67-12.39-23-32.58T249.48,64.09Z" style="fill: #7566f0"/>
          <path d="M444.94,141.44a73.09,73.09,0,0,1-27.55-27q-10.18-17.25-10.18-38.87t10.18-38.87A72.37,72.37,0,0,1,444.94,9.75a79.93,79.93,0,0,1,76.18,0,71.86,71.86,0,0,1,27.33,26.92q10.08,17.27,10.09,38.87t-10.09,38.87a72.42,72.42,0,0,1-27.43,27,78.94,78.94,0,0,1-76.08,0Zm59.34-42.1q7.49-8.82,7.49-23.8,0-15.16-7.49-24t-21.2-8.83q-13.93,0-21.41,8.83t-7.48,24q0,15,7.48,23.8t21.41,8.84Q496.81,108.18,504.28,99.34Z" style="fill: #7566f0"/>
          <path d="M676.91,11.94a65.56,65.56,0,0,1,26.71,26Q713,54.55,713,75.75q0,21-9.36,37.83a67.32,67.32,0,0,1-26.71,26.51q-17.35,9.66-40.43,9.66H575.16V2.58h61.32Q659.57,2.58,676.91,11.94Zm-19.85,88.13q9.15-8.52,9.15-24.32t-9.15-24.32q-9.15-8.52-24.73-8.52h-11v65.68h11Q647.92,108.59,657.06,100.07Z" style="fill: #7566f0"/>
          <path d="M775.75,39.37V57.46h45.73V92.17H775.75V113h52v36.79H729.61V2.58h98.11V39.37Z" style="fill: #7566f0"/>
        </g>
        <g>
          <path d="M655.13,200.48V225H618.52v-4.94a4.19,4.19,0,0,1,4.11-4.19H646V200.48a7.9,7.9,0,0,0-8.29-8.21H622v-5a4.16,4.16,0,0,1,4.1-4.1h11.65A17,17,0,0,1,655.13,200.48Z" style="fill: #9facc8"/>
          <path d="M710.09,215.89V225h-8.47v2.27c-.08,8.29-7.28,14.49-16.75,14.49H670.29v-4.94a4.24,4.24,0,0,1,4.11-4.19h10.47c4.52,0,7.62-2.26,7.62-5.45V225h-9.55a17.75,17.75,0,0,1-18.17-18.17V201.4a17.75,17.75,0,0,1,18.17-18.18h.42a17.82,17.82,0,0,1,18.26,18.18v14.49Zm-17.6,0V201.4a8.75,8.75,0,0,0-9.13-9.13h-.42c-5.36,0-9,3.77-9,9.13v5.45a8.61,8.61,0,0,0,9,9Z" style="fill: #9facc8"/>
          <path d="M716,215.89V225h-9.21v-9.13Z" style="fill: #9facc8"/>
          <path d="M721.81,215.89V225H712.6v-9.13Z" style="fill: #9facc8"/>
          <path d="M727.68,215.89V225h-9.22v-9.13Z" style="fill: #9facc8"/>
          <path d="M733.54,215.89V225h-9.21v-9.13Z" style="fill: #9facc8"/>
          <path d="M779.28,215.89V225h-1.84a13.07,13.07,0,0,1-10.89-5.19c-2.35,3.1-6.7,5.19-13.57,5.19H731v-9.13h21.61c7.79,0,9.55-6.45,2.35-12.73a75,75,0,0,0-18.85-11.89V181.05l29.15-14.75,2,4.19a4.27,4.27,0,0,1-1.93,5.95L746.52,186a65.09,65.09,0,0,1,14.58,10.3,24.35,24.35,0,0,1,7.29,12.23l.08.34c1.18,4.19,4.19,7,9,7Z" style="fill: #9facc8"/>
          <path d="M799.47,207.68A17,17,0,0,1,782.13,225h-4.52v-9.13h4.52a7.89,7.89,0,0,0,8.29-8.21V187.24a4.11,4.11,0,0,1,4.11-4.1h4.94ZM789.17,236a5.07,5.07,0,1,1-5.11-5.11A5.17,5.17,0,0,1,789.17,236Zm12.73,0a5.07,5.07,0,1,1-5.11-5.11A5.17,5.17,0,0,1,801.9,236Z" style="fill: #9facc8"/>
          <path d="M804.92,250.07v-2.51h13.82a2.17,2.17,0,0,1,1.93,2.09v2.52H806.84A2,2,0,0,1,804.92,250.07Z" style="fill: #9facc8"/>
          <path d="M823.6,183.14v45.57a12.84,12.84,0,0,1-13.15,13.07H805v-4.94a4.18,4.18,0,0,1,4.11-4.19h1.34a3.72,3.72,0,0,0,4-3.94V187.24a4.11,4.11,0,0,1,4.1-4.1Z" style="fill: #9facc8"/>
        </g>
      </g>
    </g>
  </g>
</svg>
